<svg xmlns="http://www.w3.org/2000/svg"><style>:root svg:not(:target){display:none}</style><svg id="stack"><svg id="stack_0" viewBox="0 0 27 35" fill="none"><path fill="currentColor" d="M13.65.45h-.1L.05 1.85v24.7l13.5 8 13.4-8V1.85L13.65.45Zm11.4 12.1-11.5-6.8v-.1h-.1l-.1-.1v.1l-11.4 6.9v-9l11.5-1.2 11.6 1.2v9Zm-11.6-5.3 11.5 6.7-4.5 2.6-7.1-4.2v1.4l5.9 3.5-.9.5-5-3v1.4l3.8 2.3-.8.5-3-1.8v1.4l1.9 1.1-1.8 1.1-11.4-6.7 11.4-6.8Zm-11.5 8.3 11.4 6.8v1l-7.9-4.7v1.4l8 4.8v1.1l-8-4.7v1.4l8 4.8 8.1-4.9v-5.2l3.4-2v10l-11.5 6.9-11.5-6.8v-9.9Z"/></svg><svg id="stack_1" viewBox="0 0 282 214" fill="none"><path d="m101.39 42.8-.13.13a3.83 3.83 0 0 1-2.76 1.34l1.72-3c1.1-1.89.06-3.72-1.66-3.72-1.41 0-2.51.55-3.56 2.38l-.92 1.59-.73 1.28-.13.13c-1.35 1.53-2.64 2.75-3.43 2.75-.43 0-.62-.3-.19-.98l3.93-6.85H95l.55-.85h-1.53l1.72-3H93.9l-1.72 3h-1.66l-.55.85h1.66l-3.69 6.36c-.8 1.35-.24 2.63 1.23 2.63 1.05 0 2.27-.8 3.38-1.9 0 2.33 3.25 2.82 5.21.31h.43c1.1 0 2.83-.67 3.75-1.77 0-.3-.31-.55-.55-.68Zm-3.93.13h-.06a1.1 1.1 0 0 0-.92 1.7v.07c-.86 1.47-2.95 1.22-1.9-.73l1.4-2.39.86-1.47c1.3-2.2 3.07-1.34 1.97.55l-1.35 2.27Zm29.39-.13-.12.13c-1.35 1.53-3 2.75-4.3 2.75-1.1 0-1.77-.74-.98-2.2l.19-.3c1.16.48 3.43.24 4.78-2.15l.25-.43c.98-1.7.06-2.93-1.47-2.93-1.48 0-2.64.8-3.44 2.14l-1.78 3.06-.12.12c-1.35 1.53-2.64 2.75-3.44 2.75-.43 0-.61-.3-.18-.98l2.64-4.65c.8-1.4.06-2.38-.99-2.38-.8 0-1.65.43-2.57 1.4l2.94-5.07h-1.84l-5.1 8.74-.12.13c-1.35 1.53-2.64 2.75-3.43 2.75-.43 0-.62-.3-.19-.98l3.93-6.85h1.47l.56-.86H112l1.72-3h-1.84l-1.72 3h-1.66l-.55.86h1.66l-3.68 6.36c-.8 1.35-.25 2.63 1.22 2.63.74 0 1.54-.37 2.34-.98l-.5.8h1.85l2.76-4.83c2.82-3.55 4.05-3.06 3.31-1.72l-2.4 4.16c-.79 1.35-.24 2.63 1.24 2.63 1.1 0 2.33-.85 3.43-1.96.06 1.17 1.05 1.96 2.52 1.96 2.08 0 4.17-1.59 5.64-3.36.07-.37-.24-.61-.49-.74Zm-3.5-2.56c1.05-1.84 2.95-1.53 1.85.36l-.25.43c-.86 1.47-2.09 1.47-2.76 1.22l1.17-2.01Zm70.46 2.56-.12.13c-.68.8-1.48 1.46-2.21 2.01.61-1.77.43-4.4 1.6-6.78l-1.36-.74c-.73 1.04-2.39 3.43-4.1 5.38l-.13.13c-1.35 1.53-2.64 2.75-3.44 2.75-.43 0-.61-.3-.18-.98l3.92-6.85h-1.84l-3.25 5.69c-1.41 1.28-2.45 1.95-2.82 1.83-.43-.18 0-.85.24-1.28l3.56-6.24h-1.84l-2.88 4.95-.13.13a3.83 3.83 0 0 1-2.76 1.34l1.72-3c1.1-1.89.06-3.72-1.66-3.72-1.4 0-2.51.55-3.56 2.38l-.91 1.59-.74 1.28-.12.13c-1.36 1.53-3.01 2.75-4.3 2.75-1.1 0-1.78-.74-.98-2.2l.18-.3c1.17.48 3.44.24 4.79-2.15l.24-.43c.99-1.7.07-2.93-1.47-2.93-1.47 0-2.64.8-3.44 2.14l-1.78 3.06-.12.12c-1.53 1.77-2.82 2.87-4.3 3.48l4.12-7.03h-1.1c0-.73-.8-1.77-1.9-1.77-1 0-2.4.8-3.14 2.14l-1.78 3.06-.12.12c-1.35 1.53-2.64 2.75-3.44 2.75-.43 0-.61-.3-.18-.98l1.84-3.18c.61-1.1.3-1.77-.25-2.5l-1.04-1.23c-.25-.3-.25-.73.12-1.04l-.98-1.04c-1.04.92-1.1 1.96-.49 2.82l.18.18a45.9 45.9 0 0 1-3.13 4.1l-.12.12a3.83 3.83 0 0 1-2.76 1.34l1.72-3c1.1-1.89.06-3.72-1.66-3.72-1.41 0-2.52.55-3.56 2.38l-.92 1.6-.74 1.28-.12.12c-1.53 1.77-2.82 2.87-4.3 3.48l4.12-7.03h-1.1c0-.73-.8-1.77-1.91-1.77-.98 0-2.4.8-3.13 2.14l-2.58 4.46c-.8 1.35-.24 2.63 1.23 2.63.5 0 1.1-.24 1.78-.61l-.5.86c-2.45.73-4.04 1.77-4.04 3.11 0 1.78 2.7 2.14 4.05-.12l1.41-2.38a11.4 11.4 0 0 0 4.42-2.75c0 2.32 3.25 2.8 5.22.3h.42c1.11 0 2.83-.67 3.75-1.77.86-1.04 1.6-1.96 3.07-3.92l.24.31c.25.3.31.67.13 1.04l-1.97 3.36c-.8 1.35-.24 2.63 1.23 2.63.92 0 1.96-.6 2.94-1.47 0 .86.56 1.47 1.6 1.47.5 0 1.1-.24 1.78-.6l-.43.72c-2.45.74-4.05 1.78-4.05 3.12 0 1.78 2.7 2.14 4.05-.12l1.41-2.38a11.79 11.79 0 0 0 4.48-2.82c.06 1.17.98 1.96 2.52 1.96 1.47 0 3-.86 4.23-1.96-.06 2.39 3.26 2.88 5.22.37h.43a4.6 4.6 0 0 0 2.03-.55c-.5 1.28-.07 2.14.98 2.14.98 0 2.14-.92 3-1.77-.18.98.43 1.77 1.6 1.77 1.53 0 3.25-1.59 4.79-3.36 1.04-1.23 1.96-2.51 2.64-3.37-.74 1.9-.31 5.32-2.1 5.32-.6 0-.85-.67-.85-.67l-1.17.61s.31 1.47 2.03 1.47c.18 0 .3 0 .49-.06h.06c1.9-.25 3.75-1.71 5.1-3.3a.94.94 0 0 0-.68-.68Zm-26.33-2.56c1.05-1.84 2.95-1.53 1.84.36l-.24.43c-.86 1.47-2.09 1.47-2.77 1.22l1.17-2.01Zm-35.1 9.54c-.37.67-.98.6-.98.06 0-.5.42-1.04 1.84-1.6l-.86 1.54Zm.86-4.1c-.43 0-.62-.3-.19-.98l2.58-4.46c.98-1.72 2.95-1.29 2.03.36l-1.42 2.45c-1.1 1.77-2.27 2.63-3 2.63Zm11.29-2.75h-.06a1.1 1.1 0 0 0-.92 1.7v.07c-.86 1.47-2.95 1.22-1.9-.73l1.4-2.39.86-1.47c1.3-2.2 3.07-1.34 1.97.55l-1.35 2.27Zm11.54 6.85c-.37.67-.98.6-.98.06 0-.5.42-1.04 1.84-1.6l-.86 1.54Zm.86-4.1c-.43 0-.62-.3-.19-.98l2.58-4.46c.98-1.72 2.94-1.29 2.02.36l-1.4 2.45c-1.11 1.77-2.28 2.63-3.01 2.63Zm18.1-2.75h-.06a1.1 1.1 0 0 0-.92 1.7v.07c-.86 1.47-2.95 1.22-1.9-.73l1.4-2.39.87-1.47c1.29-2.2 3.07-1.34 1.96.55l-1.35 2.27Zm-95.19-2.08H62.11v1.22h17.73v-1.22Zm139.32 0h-17.74v1.22h17.74v-1.22Z" fill="#766458"/><path d="M100.03 0h4.73l-.74 27.46h-8.9L93.9 16.14l-1.23 11.32h-8.96L83.04 0h4.66l.37 22.75h.49l3-22.75h4.67l3 22.75h.5l.3-22.75Zm19.52 22.75v4.77h-12.83V0h12.83v4.7h-8.16v6.61h6.5v4.71h-6.5v6.67h8.16v.06Zm13.13 0v4.77h-11.23V0h4.67v22.75h6.56Zm9.95-5.38 4.72-1.1v8.31a2.92 2.92 0 0 1-2.88 2.88h-7.06a2.92 2.92 0 0 1-2.88-2.88V2.88A2.88 2.88 0 0 1 137.4 0h7.06a2.92 2.92 0 0 1 2.88 2.87v5.57l-4.72 1.1v-4.9h-3.38V22.7h3.38v-5.32ZM160.12 0A2.92 2.92 0 0 1 163 2.87v21.65a2.92 2.92 0 0 1-2.88 2.87h-7.06a2.92 2.92 0 0 1-2.88-2.87V2.87A2.88 2.88 0 0 1 153.06 0h7.06Zm-1.84 4.7h-3.38v18.05h3.38V4.7ZM178.34 0h4.67v27.46h-4.67V13.94l-1.9 6.97h-4.6L170 13.94v13.52h-4.67V0H170l4.17 13.27L178.34 0Zm19.83 22.75v4.77h-12.83V0h12.83v4.7H190v6.61h6.5v4.71H190v6.67h8.16v.06Z" fill="#81B3D3"/><path d="M27.19 96.37a12.52 12.52 0 0 0-7.92-3.06c-2.2 0-5.1 1.29-5.1 3.86 0 2.69 3.26 3.73 5.28 4.34l3.07.92c6.39 1.9 11.36 5.07 11.36 12.47 0 4.52-1.1 9.23-4.73 12.3-3.62 3.05-8.4 4.27-13 4.27A28.64 28.64 0 0 1 0 126.27l4.97-9.47c3 2.63 6.5 4.7 10.62 4.7 2.82 0 5.77-1.4 5.77-4.58 0-3.36-4.67-4.47-7.24-5.2-7.5-2.2-12.4-4.1-12.4-12.96 0-9.3 6.63-15.35 15.83-15.35 4.6 0 10.31 1.47 14.36 3.79l-4.72 9.17Zm29.03-1.71v7.64h13.44v10.1H56.22v7.88h14.23v10.1H44.31V84.62h26.14v10.1l-14.23-.07ZM79.3 84.63h16.93c12.77 0 23.32 10.03 23.32 22.87 0 12.84-10.62 22.87-23.32 22.87H79.29V84.63Zm11.96 35.65h2.7c7.12 0 13.2-3.91 13.2-12.78 0-8.2-5.4-12.78-13.08-12.78h-2.82v25.56Zm84.69-13.64c0 14.8-10.68 25.26-25.4 25.26-14.74 0-25.41-10.46-25.41-25.26 0-13.81 12.2-23.54 25.4-23.54s25.41 9.73 25.41 23.55Zm-38.42.07c0 7.89 5.83 13.63 12.95 13.63 7.12 0 12.95-5.75 12.95-13.63 0-6.3-5.83-12.11-12.95-12.11-7.06 0-12.95 5.8-12.95 12.1Zm44.74-22.08h11.97l21.85 28h.12v-28h11.97v45.74H216.2l-21.85-28.07h-.12v28.07h-11.97V84.63Zm67.57 37.79-3.19 7.95h-12.64l17.67-45.74h13.01L282 130.37h-12.7l-3.01-7.95h-16.45Zm8.35-23.66h-.13l-4.9 14.55h9.94l-4.91-14.55ZM66.22 175.93c4.73-1.6 5.03-7.46.43-7.46-1.29 0-2.82.91-3.87 2.69l-6.26 10.82c-.3.49-.55.92-.92 1.34-1.6-2.2-1.16-5.5 1.1-6.97l-.91-1.16c-4.91 3.12-3.44 12.05 4.72 12.05 6.94 0 10.19-8.32 5.71-11.31Zm-5.77 9.53c-1.41 0-2.45-.3-3.37-.79.42-.49.8-1.04 1.16-1.65l3.93-6.79.61.06c5.46 1.17 3.32 9.18-2.33 9.18Zm2.52-10.57 1.9-3.24c1.72-2.94 3.87-1.23 2.7.97-.92 1.72-2.21 2.2-4.6 2.27Z" fill="#fff"/><path d="M85.92 183.45c-.37 1.34.37 2.5 1.9 2.5.92 0 2.09-.6 3.25-1.52.13.91.86 1.53 2.03 1.53 1.23 0 2.58-.86 3.93-2.08-.25 1.22.3 2.08 1.47 2.08 1.29 0 2.7-1.17 3.8-2.2-.24 1.22.5 2.2 1.97 2.2 1.9 0 4.11-2.08 6.08-4.28 0-.07-.07-.07-.07-.13 1.3-1.47 2.4-3.06 3.26-4.16-.92 2.39-.43 6.73-2.64 6.73-.8 0-1.1-.86-1.1-.86l-1.48.74s.43 1.9 2.58 1.9c.24 0 .43 0 .67-.07h.06c1.72-.24 3.38-1.28 4.85-2.57.06 1.53 1.23 2.63 3.13 2.63 2.64 0 5.28-2.07 7.18-4.28-.18-.3-.55-.67-.86-.8l-.18.2c-1.66 1.95-3.8 3.48-5.46 3.48-1.41 0-2.27-.92-1.23-2.75l.25-.43c1.47.6 4.3.3 6.07-2.7l.3-.54c1.23-2.14.07-3.73-1.83-3.73-1.9 0-3.38.97-4.36 2.69l-2.27 3.85h-.06l-.19.18c-.86.98-1.9 1.9-2.82 2.51.74-2.2.55-5.63 2.03-8.56l-1.72-.92c-.98 1.35-3.07 4.34-5.16 6.79l.06.06-.06.12c-1.66 1.96-3.31 3.49-4.36 3.49-.49 0-.8-.37-.24-1.29l4.97-8.68h-2.33l-4.11 7.22c-1.78 1.59-3.13 2.5-3.56 2.32-.56-.24 0-1.1.3-1.59l4.55-7.89h-2.34L98.5 181c-.06-.06-.12-.06-.18-.12l-.19.18c-1.65 1.96-3.31 3.49-4.35 3.49-.5 0-.8-.37-.25-1.29l3.74-6.54h-1.35c.06-.98-.92-2.32-2.45-2.32-1.23 0-3 .98-4 2.69l-2.32 4.03c-.13-.12-.25-.18-.37-.24l-.19.18c-1.65 1.96-3.8 3.49-5.46 3.49-1.4 0-2.27-.92-1.22-2.75l2.39-4.16c1.35-2.32 3.74-1.9 2.33.49l-.3.55h1.9l.3-.55c1.23-2.14.06-3.73-1.84-3.73-1.9 0-3.37.98-4.36 2.69L78 181.06c-.06-.06-.12-.06-.18-.12l-.19.19c-1.65 1.95-3.8 3.48-5.46 3.48-1.4 0-2.27-.92-1.22-2.75l.24-.43c1.47.61 4.3.3 6.08-2.69l.3-.55c1.23-2.14.06-3.73-1.84-3.73-1.9 0-3.37.98-4.36 2.69l-2.45 4.16c-1.47 2.44-.18 4.77 2.58 4.77 2.02 0 4.1-1.23 5.77-2.82-.07 1.6 1.16 2.82 3.13 2.82 1.96-.13 3.86-1.23 5.52-2.63Zm35.6-5.87c1.34-2.33 3.74-1.9 2.33.49l-.31.55c-1.1 1.9-2.64 1.83-3.5 1.53l1.47-2.57Zm-33.27 5.68 3.25-5.62c1.23-2.14 3.75-1.6 2.58.49l-1.84 3.18c-1.41 2.2-2.82 3.24-3.74 3.24-.5-.06-.8-.37-.25-1.29Zm-14.85-5.68c1.35-2.33 3.74-1.9 2.33.49l-.3.55c-1.11 1.9-2.64 1.83-3.5 1.53l1.47-2.57Zm78.92 8.37c2.64 0 5.28-2.07 7.18-4.28-.18-.3-.55-.67-.86-.8l-.18.2c-1.66 1.95-3.8 3.48-5.46 3.48-1.41 0-2.27-.92-1.23-2.75l.25-.43c1.47.6 4.3.3 6.07-2.7l.3-.54c1.24-2.14.07-3.73-1.83-3.73-1.9 0-3.38.97-4.36 2.69l-2.27 3.85s-.06 0-.06-.06l-.19.18c-1.65 1.96-3.31 3.49-4.35 3.49-.5 0-.8-.37-.25-1.29l3.38-5.87c.98-1.77.06-3.05-1.23-3.05-.98 0-2.09.55-3.25 1.77l3.74-6.42h-2.4L138.77 181c-.06-.06-.18-.12-.25-.18l-.18.18c-1.66 1.96-3.31 3.49-4.36 3.49-.49 0-.8-.37-.24-1.29l4.97-8.68h1.9l.68-1.1h-1.9l2.2-3.8h-2.33l-2.2 3.8h-2.1l-.67 1.1h2.15l-4.67 8.07c-.98 1.71-.3 3.3 1.6 3.3 1.16 0 2.4-.73 3.68-1.83l-.92 1.59h2.33l3.56-6.12c3.56-4.46 5.16-3.91 4.18-2.2l-3.01 5.26c-.98 1.71-.3 3.3 1.6 3.3 1.4 0 3-1.1 4.47-2.56 0 1.52 1.17 2.62 3.07 2.62Zm1.9-8.37c1.36-2.33 3.75-1.9 2.34.49l-.3.55c-1.11 1.9-2.65 1.83-3.5 1.53l1.47-2.57Zm68.68 3.3-.18.18c-1.66 1.96-3.32 3.49-4.36 3.49-.5 0-.8-.37-.25-1.29l7.86-13.57h-2.33l-3.44 5.87a2.53 2.53 0 0 0-2.15-1.22c-1.23 0-3 .97-3.99 2.69l-2.27 3.91c-.06 0-.12-.06-.12-.06l-.18.18c-1.66 1.96-3.32 3.49-4.36 3.49-.5 0-.8-.37-.25-1.29l3.38-5.87c.98-1.77.06-3.05-1.23-3.05-.98 0-2.09.55-3.25 1.7l.86-1.52h-2.34l-3.74 6.42c-.06-.06-.12-.12-.25-.12l-.18.18c-1.66 1.96-3.31 3.49-4.36 3.49-.49 0-.8-.37-.24-1.29l3.74-6.54h-1.16c.06-.98-.93-2.32-2.46-2.32-1.23 0-3 .97-3.99 2.69l-2.27 3.85-.12.12c-1.66 1.96-3.32 3.49-4.36 3.49-.49 0-.8-.37-.24-1.29l2.33-4.03c.8-1.41.43-2.2-.3-3.12l-1.3-1.6c-.3-.42-.3-.9.13-1.34l-1.23-1.34c-1.35 1.16-1.41 2.5-.62 3.54l.19.25c-1.05 1.47-2.4 3.42-3.93 5.2l.18.18c-1.9 2.2-3.56 3.6-5.4 4.4l2.95-5.01h-2.27l-.25.43c-1.22 2.14-2.64 3.73-4.48 3.73-1.6 0-1.9-1.6-.49-3.98l.68-1.16c.43.06.86.12 1.35.12 8.28 0 12.27-11.06 4.97-11.06-1.29 0-2.83.91-3.87 2.69l-3.62 6.23a3.8 3.8 0 0 1-2.09-3.3c0-1.1.5-2.14 1.48-2.94l-.74-1.34a5.24 5.24 0 0 0-2.4 4.34c0 1.84 1.05 3.6 2.95 4.59l-.67 1.22c-1.66 2.81-1.35 5.93 1.96 5.93.98 0 1.84-.3 2.52-.73l-.61 1.04c-3.13.98-5.1 2.2-5.1 3.97 0 2.2 3.44 2.7 5.1-.18l1.77-3.06c2.4-.73 4.8-2.38 7.37-5.38-.06-.06-.06-.12-.12-.24 1.04-1.23 1.9-2.39 3.68-4.77l.3.36c.31.37.44.86.13 1.35l-2.46 4.28c-.98 1.71-.3 3.3 1.6 3.3 1.16 0 2.45-.73 3.68-1.83 0 1.04.68 1.83 2.03 1.83.92 0 2.08-.61 3.25-1.53.12.92.86 1.53 2.02 1.53 1.1 0 2.34-.67 3.5-1.71l-.86 1.47h2.34l3.56-6.18c3.55-4.46 5.15-3.85 4.1-2.14l-3 5.26c-.98 1.71-.3 3.3 1.6 3.3 1.22 0 2.57-.86 3.92-2.02-.12 1.16.62 2.02 2.03 2.02.92 0 2.09-.61 3.25-1.53.12.92.86 1.53 2.03 1.53 1.9 0 4.1-2.08 6.07-4.28-.24-.12-.67-.49-.98-.61Zm-47.8-8.68c.67-1.17 1.47-1.72 2.08-1.72 3.68 0 1.1 7.53-4.97 7.53h-.5l3.38-5.81Zm-4.98 17.49c-.49.85-1.29.73-1.29.12 0-.62.55-1.29 2.33-1.96l-1.04 1.84Zm24.37-8.44c-1.42 2.2-2.83 3.24-3.75 3.24-.49 0-.8-.37-.24-1.29l3.25-5.62c1.23-2.14 3.74-1.6 2.58.49l-1.84 3.18Zm22.52-.13c-1.41 2.33-2.82 3.37-3.8 3.37-.5 0-.8-.37-.25-1.29l3.25-5.62c1.23-2.14 3.74-1.6 2.58.49l-1.78 3.05Zm-71.87 21.78-.18.18c-1.66 1.95-3.31 3.48-4.36 3.48-.49 0-.8-.37-.24-1.28l3.37-5.87c.98-1.78.06-3.06-1.23-3.06-.98 0-2.08.55-3.25 1.71l.86-1.53h-2.33l-3.75 6.48c-.12-.06-.18-.12-.3-.18l-.19.18a4.79 4.79 0 0 1-3.5 1.72l2.22-3.8c1.4-2.44.12-4.7-2.1-4.7-1.77 0-3.18.73-4.53 3.06l-1.17 1.95-.98 1.71c-.06-.06-.12-.06-.19-.12l-.18.18c-1.9 2.2-3.56 3.61-5.4 4.4l6.38-10.88h-2.33l-4.11 7.16c-1.78 1.65-3.2 2.57-3.62 2.38-.56-.24 0-1.1.3-1.59l4.55-7.89h-2.34l-3.74 6.42c-.06-.06-.12-.06-.18-.12l-.19.19c-1.66 1.95-3.31 3.48-4.36 3.48-.49 0-.8-.37-.24-1.28l3.38-5.87c.98-1.78.06-3.06-1.23-3.06-.98 0-2.09.55-3.26 1.71l.86-1.53h-2.33l-3.74 6.42c-.06-.06-.13-.12-.25-.12l-.18.18c-1.66 1.96-3.32 3.49-4.36 3.49-.49 0-.8-.37-.24-1.28l3.74-6.55h-1.35c.06-.97-.92-2.32-2.46-2.32-1.22 0-3 .98-3.98 2.69l-2.4 4.16a5.66 5.66 0 0 0-.49-.3l-.18.18c-1.66 1.95-3.75 3.48-6.02 3.48-1.6 0-2.58-1.59-1.16-3.97l.67-1.16c.43.06.86.12 1.35.12 2.46 0 5.28-1.29 7.12-4.47.68-1.16.92-2.2.92-3.12 0-2.07-1.35-3.48-3.07-3.48-1.29 0-2.82.92-3.86 2.69l-3.63 6.24a3.8 3.8 0 0 1-2.08-3.3c0-1.1.49-2.15 1.47-2.94l-.74-1.34a5.23 5.23 0 0 0-2.39 4.34c0 1.83 1.04 3.6 2.95 4.58l-.68 1.22c-1.65 2.82-.67 5.94 2.64 5.94 2.58 0 4.54-1.16 6.14-2.7-.5 1.47.24 2.7 1.9 2.7.92 0 2.09-.62 3.25-1.53.13.91.86 1.53 2.03 1.53 1.1 0 2.33-.68 3.5-1.72l-.86 1.47h2.33l3.56-6.17c3.56-4.47 5.15-3.86 4.11-2.14l-3 5.25c-.99 1.72-.31 3.3 1.59 3.3 1.23 0 2.64-.85 3.99-2.07-.3 1.28.3 2.08 1.47 2.08 1.1 0 2.4-.92 3.44-1.9l-1.29 2.2c-3.13.92-5.16 2.2-5.16 3.98 0 2.2 3.44 2.69 5.1-.19l1.78-3.05c1.96-.61 3.86-1.84 5.89-3.8-.3 3.25 3.99 3.98 6.63.68h.49c.86 0 2.02-.3 3.07-.92l-1.54 2.7h2.33l3.56-6.19c3.56-4.46 5.16-3.85 4.12-2.13l-3.01 5.25c-.98 1.72-.3 3.3 1.6 3.3 1.9 0 4.1-2.07 6.07-4.28-.06-.18-.49-.55-.8-.67Zm-57.93-8.7c.67-1.15 1.47-1.7 2.09-1.7.85 0 1.28.55 1.28 1.4 0 2.14-2.64 6.06-6.26 6.06h-.49l3.38-5.75Zm8.22 9.06c-1.4 2.2-2.82 3.24-3.74 3.24-.5 0-.8-.37-.25-1.28l3.26-5.63c1.22-2.14 3.74-1.59 2.57.49l-1.84 3.18Zm17.68 8.44c-.5.85-1.3.73-1.3.12s.56-1.28 2.34-1.96l-1.04 1.84Zm15.7-8.69h-.12c-.73 0-1.34.62-1.34 1.41 0 .3.06.55.24.8v.06c-1.1 1.9-3.74 1.53-2.4-.92l1.79-3.06 1.1-1.9c1.66-2.75 3.87-1.64 2.46.74l-1.72 2.88Zm70.28.68a1.37 1.37 0 0 0-.86-.8l-.19.19c-.85.97-1.9 1.9-2.82 2.5.74-2.2.55-5.62 2.03-8.56l-1.72-.91c-.98 1.34-3.07 4.34-5.16 6.78l-.18.19c-1.66 1.95-3.31 3.48-4.36 3.48-.49 0-.98-.49-.98-1.59V204c1.66.19 3.38-.85 4.48-2.75l.61-1.1c2.15-3.73-1.35-4.95-3.74-2.75l3.31-5.75h-2.33l-6.63 11.5c-.12-.12-.3-.25-.43-.3l-.18.18c-1.66 1.95-3.8 3.48-5.46 3.48-1.41 0-2.27-.92-1.23-2.75l2.4-4.16c1.34-2.32 3.74-1.9 2.33.5l-.31.54h1.9l.3-.55c1.24-2.14.07-3.73-1.83-3.73-1.9 0-3.38.98-4.36 2.7l-2.27 3.9c-.06 0-.12-.06-.12-.06l-.19.19c-1.65 1.95-3.31 3.48-4.35 3.48-.5 0-.8-.36-.25-1.28l4.97-8.69h-2.33l-4.11 7.22c-1.78 1.6-3.13 2.5-3.56 2.32-.56-.24 0-1.1.3-1.59l4.55-7.88h-2.34l-4.54 7.76c-.49.43-1.04.86-1.47 1.23.74-2.2.55-5.63 2.02-8.57l-1.71-.91c-.99 1.34-6.32 8.44-8.47 10.88.18.3.55.55.86.8 1.35-1.53 5.77-7.22 6.56-8.32-.92 2.38-.43 6.73-2.64 6.73-.8 0-1.1-.86-1.1-.86l-1.47.73s.43 1.9 2.57 1.9c.25 0 .43 0 .68-.06h.06a8.05 8.05 0 0 0 3.44-1.47c0 .92.55 1.53 1.53 1.53 1.29 0 2.7-1.16 3.8-2.2-.24 1.22.5 2.2 1.97 2.2s3.07-1.16 4.6-2.7c0 1.54 1.23 2.7 3.13 2.7s3.75-1.04 5.4-2.45l-1.28 2.27h2.33l2.64-4.59v1.84c0 1.95.36 3 2.27 3 1.9 0 4.1-2.09 6.07-4.29 1.35-1.53 2.46-3.12 3.32-4.22-.92 2.39-.43 6.73-2.64 6.73-.8 0-1.1-.86-1.1-.86l-1.48.74s.43 1.9 2.58 1.9c.24 0 .43 0 .67-.07h.06c2.34-.43 4.73-2.32 6.45-4.34Zm-15.47-1.84.68-1.16c2.7-3.73 4.54-2.69 3.68-1.28l-1.1 1.9c-.68 1.22-2.7 2.07-3.26.54Zm15.41 3.43c-.74 0-1.35.61-1.35 1.34 0 .74.55 1.35 1.35 1.35.73 0 1.35-.55 1.35-1.35 0-.73-.62-1.34-1.35-1.34Zm.12-.92h2.33l7.3-12.66h-2.33l-7.3 12.66ZM49.22 169.75c0 .18-.06.37-.12.55-.06.18-.19.37-.31.49s-.3.25-.5.37c-.18.06-.42.12-.67.12-.3 0-.55-.06-.8-.18-.24-.13-.48-.25-.67-.43-.18-.19-.24-.37-.37-.61a3.08 3.08 0 0 1-.12-.8c0-.55.12-.98.3-1.47.2-.42.44-.85.8-1.16.13-.12.31-.3.5-.43.18-.12.36-.24.55-.3.18-.06.3-.19.43-.25.12-.06.18-.06.24-.12l.86 1.22c-.12.06-.3.13-.49.25-.18.06-.37.18-.55.3-.19.13-.3.31-.43.5-.12.18-.18.36-.18.6.42 0 .73.13 1.04.37.37.19.49.55.49.98Zm4.85 0c0 .18-.06.37-.12.55-.07.18-.19.37-.31.49s-.3.25-.5.37c-.18.06-.42.12-.67.12-.3 0-.55-.06-.8-.18-.24-.13-.49-.25-.67-.43-.12-.19-.25-.37-.37-.61a3.08 3.08 0 0 1-.12-.8c0-.55.12-.98.3-1.47.19-.42.43-.85.8-1.16.13-.12.31-.3.5-.43.18-.12.36-.24.55-.3.18-.06.3-.19.43-.25.12-.06.18-.06.24-.12l.86 1.22c-.12.06-.3.13-.49.25-.18.06-.37.18-.55.3-.19.13-.31.31-.43.5-.13.18-.19.36-.19.6.43 0 .74.13 1.05.37.3.19.49.55.49.98Zm162.69 36.02c0-.19.06-.37.13-.55.06-.19.18-.37.3-.5.13-.12.3-.24.5-.36.18-.06.42-.12.67-.12.3 0 .55.06.8.18.24.12.49.25.67.43.18.18.25.37.37.61.06.25.12.5.12.8 0 .55-.12.98-.3 1.46-.19.43-.43.86-.8 1.17a3.41 3.41 0 0 1-1.05.73c-.18.06-.3.18-.42.24-.13.06-.19.06-.25.13l-.86-1.23c.12-.06.3-.12.5-.24.18-.06.36-.18.54-.3.19-.13.31-.31.43-.5.13-.18.19-.36.19-.6-.43 0-.74-.13-1.05-.37-.3-.19-.49-.56-.49-.98Zm-4.78 0c0-.19.06-.37.12-.55.06-.19.18-.37.3-.5.13-.12.31-.24.5-.36.18-.06.43-.12.67-.12.3 0 .55.06.8.18s.49.25.67.43c.13.18.25.37.37.61.06.25.13.5.13.8 0 .55-.13.98-.31 1.46-.19.43-.43.86-.8 1.17-.12.12-.3.3-.49.42-.19.13-.37.25-.55.31-.19.06-.31.18-.43.24-.13.06-.19.06-.25.13l-.86-1.23c.19-.06.31-.12.5-.24.18-.06.36-.18.55-.3.18-.13.3-.31.43-.5.12-.18.18-.36.18-.6-.43 0-.74-.13-1.04-.37-.37-.19-.5-.56-.5-.98Z" fill="#fff"/></svg></svg><svg viewBox="0 0 320 37" fill="none" id="background-images_white-spear"><mask id="background-images_white-spear_0" style="mask-type:alpha" maskUnits="userSpaceOnUse" x="0" y="0" width="320" height="37"><path fill="#C4C4C4" d="M0 0h320v37H0z"/></mask><g mask="url(#background-images_white-spear_0)"><path fill-rule="evenodd" clip-rule="evenodd" d="M-225 0h384v37L-225 0ZM543 0H159v37L543 0Z" fill="#fff"/></g></svg><svg viewBox="0 0 1200 57" fill="none" id="background-images_wings-desktop"><path d="M249.6 23.7 0 0v57h600L249.6 0v23.7ZM950.4 23.7V0L600 57h599.9V0L950.4 23.7Z" fill="#fff"/></svg><svg viewBox="0 0 320 57" fill="none" id="background-images_wings-phone"><path d="M-190.171 23.7-440 0v57h600.55L-190.171 0v23.7ZM511.271 23.7V0L160.55 57H761V0L511.271 23.7Z" fill="#fff"/></svg><svg viewBox="0 0 768 57" fill="none" id="background-images_wings-tablet"><path d="M33.6 23.7-216 0v57h600L33.6 0v23.7ZM734.4 23.7V0L384 57h599.9V0L734.4 23.7Z" fill="#fff"/></svg><svg viewBox="0 0 27 35" fill="none" id="content-images_htmlacademy"><path d="M13.65.45h-.1L.05 1.85v24.7l13.5 8 13.4-8V1.85L13.65.45Zm11.4 12.1-11.5-6.8v-.1h-.1l-.1-.1v.1l-11.4 6.9v-9l11.5-1.2 11.6 1.2v9Zm-11.6-5.3 11.5 6.7-4.5 2.6-7.1-4.2v1.4l5.9 3.5-.9.5-5-3v1.4l3.8 2.3-.8.5-3-1.8v1.4l1.9 1.1-1.8 1.1-11.4-6.7 11.4-6.8Zm-11.5 8.3 11.4 6.8v1l-7.9-4.7v1.4l8 4.8v1.1l-8-4.7v1.4l8 4.8 8.1-4.9v-5.2l3.4-2v10l-11.5 6.9-11.5-6.8v-9.9Z" fill="#000"/></svg><svg fill="none" id="content-images_welcome" viewBox="0 0 282 214"><path d="m101.39 42.8-.13.13a3.83 3.83 0 0 1-2.76 1.34l1.72-3c1.1-1.89.06-3.72-1.66-3.72-1.41 0-2.51.55-3.56 2.38l-.92 1.59-.73 1.28-.13.13c-1.35 1.53-2.64 2.75-3.43 2.75-.43 0-.62-.3-.19-.98l3.93-6.85H95l.55-.85h-1.53l1.72-3H93.9l-1.72 3h-1.66l-.55.85h1.66l-3.69 6.36c-.8 1.35-.24 2.63 1.23 2.63 1.05 0 2.27-.8 3.38-1.9 0 2.33 3.25 2.82 5.21.31h.43c1.1 0 2.83-.67 3.75-1.77 0-.3-.31-.55-.55-.68Zm-3.93.13h-.06a1.1 1.1 0 0 0-.92 1.7v.07c-.86 1.47-2.95 1.22-1.9-.73l1.4-2.39.86-1.47c1.3-2.2 3.07-1.34 1.97.55l-1.35 2.27Zm29.39-.13-.12.13c-1.35 1.53-3 2.75-4.3 2.75-1.1 0-1.77-.74-.98-2.2l.19-.3c1.16.48 3.43.24 4.78-2.15l.25-.43c.98-1.7.06-2.93-1.47-2.93-1.48 0-2.64.8-3.44 2.14l-1.78 3.06-.12.12c-1.35 1.53-2.64 2.75-3.44 2.75-.43 0-.61-.3-.18-.98l2.64-4.65c.8-1.4.06-2.38-.99-2.38-.8 0-1.65.43-2.57 1.4l2.94-5.07h-1.84l-5.1 8.74-.12.13c-1.35 1.53-2.64 2.75-3.43 2.75-.43 0-.62-.3-.19-.98l3.93-6.85h1.47l.56-.86H112l1.72-3h-1.84l-1.72 3h-1.66l-.55.86h1.66l-3.68 6.36c-.8 1.35-.25 2.63 1.22 2.63.74 0 1.54-.37 2.34-.98l-.5.8h1.85l2.76-4.83c2.82-3.55 4.05-3.06 3.31-1.72l-2.4 4.16c-.79 1.35-.24 2.63 1.24 2.63 1.1 0 2.33-.85 3.43-1.96.06 1.17 1.05 1.96 2.52 1.96 2.08 0 4.17-1.59 5.64-3.36.07-.37-.24-.61-.49-.74Zm-3.5-2.56c1.05-1.84 2.95-1.53 1.85.36l-.25.43c-.86 1.47-2.09 1.47-2.76 1.22l1.17-2.01Zm70.46 2.56-.12.13c-.68.8-1.48 1.46-2.21 2.01.61-1.77.43-4.4 1.6-6.78l-1.36-.74c-.73 1.04-2.39 3.43-4.1 5.38l-.13.13c-1.35 1.53-2.64 2.75-3.44 2.75-.43 0-.61-.3-.18-.98l3.92-6.85h-1.84l-3.25 5.69c-1.41 1.28-2.45 1.95-2.82 1.83-.43-.18 0-.85.24-1.28l3.56-6.24h-1.84l-2.88 4.95-.13.13a3.83 3.83 0 0 1-2.76 1.34l1.72-3c1.1-1.89.06-3.72-1.66-3.72-1.4 0-2.51.55-3.56 2.38l-.91 1.59-.74 1.28-.12.13c-1.36 1.53-3.01 2.75-4.3 2.75-1.1 0-1.78-.74-.98-2.2l.18-.3c1.17.48 3.44.24 4.79-2.15l.24-.43c.99-1.7.07-2.93-1.47-2.93-1.47 0-2.64.8-3.44 2.14l-1.78 3.06-.12.12c-1.53 1.77-2.82 2.87-4.3 3.48l4.12-7.03h-1.1c0-.73-.8-1.77-1.9-1.77-1 0-2.4.8-3.14 2.14l-1.78 3.06-.12.12c-1.35 1.53-2.64 2.75-3.44 2.75-.43 0-.61-.3-.18-.98l1.84-3.18c.61-1.1.3-1.77-.25-2.5l-1.04-1.23c-.25-.3-.25-.73.12-1.04l-.98-1.04c-1.04.92-1.1 1.96-.49 2.82l.18.18a45.9 45.9 0 0 1-3.13 4.1l-.12.12a3.83 3.83 0 0 1-2.76 1.34l1.72-3c1.1-1.89.06-3.72-1.66-3.72-1.41 0-2.52.55-3.56 2.38l-.92 1.6-.74 1.28-.12.12c-1.53 1.77-2.82 2.87-4.3 3.48l4.12-7.03h-1.1c0-.73-.8-1.77-1.91-1.77-.98 0-2.4.8-3.13 2.14l-2.58 4.46c-.8 1.35-.24 2.63 1.23 2.63.5 0 1.1-.24 1.78-.61l-.5.86c-2.45.73-4.04 1.77-4.04 3.11 0 1.78 2.7 2.14 4.05-.12l1.41-2.38a11.4 11.4 0 0 0 4.42-2.75c0 2.32 3.25 2.8 5.22.3h.42c1.11 0 2.83-.67 3.75-1.77.86-1.04 1.6-1.96 3.07-3.92l.24.31c.25.3.31.67.13 1.04l-1.97 3.36c-.8 1.35-.24 2.63 1.23 2.63.92 0 1.96-.6 2.94-1.47 0 .86.56 1.47 1.6 1.47.5 0 1.1-.24 1.78-.6l-.43.72c-2.45.74-4.05 1.78-4.05 3.12 0 1.78 2.7 2.14 4.05-.12l1.41-2.38a11.79 11.79 0 0 0 4.48-2.82c.06 1.17.98 1.96 2.52 1.96 1.47 0 3-.86 4.23-1.96-.06 2.39 3.26 2.88 5.22.37h.43a4.6 4.6 0 0 0 2.03-.55c-.5 1.28-.07 2.14.98 2.14.98 0 2.14-.92 3-1.77-.18.98.43 1.77 1.6 1.77 1.53 0 3.25-1.59 4.79-3.36 1.04-1.23 1.96-2.51 2.64-3.37-.74 1.9-.31 5.32-2.1 5.32-.6 0-.85-.67-.85-.67l-1.17.61s.31 1.47 2.03 1.47c.18 0 .3 0 .49-.06h.06c1.9-.25 3.75-1.71 5.1-3.3a.94.94 0 0 0-.68-.68Zm-26.33-2.56c1.05-1.84 2.95-1.53 1.84.36l-.24.43c-.86 1.47-2.09 1.47-2.77 1.22l1.17-2.01Zm-35.1 9.54c-.37.67-.98.6-.98.06 0-.5.42-1.04 1.84-1.6l-.86 1.54Zm.86-4.1c-.43 0-.62-.3-.19-.98l2.58-4.46c.98-1.72 2.95-1.29 2.03.36l-1.42 2.45c-1.1 1.77-2.27 2.63-3 2.63Zm11.29-2.75h-.06a1.1 1.1 0 0 0-.92 1.7v.07c-.86 1.47-2.95 1.22-1.9-.73l1.4-2.39.86-1.47c1.3-2.2 3.07-1.34 1.97.55l-1.35 2.27Zm11.54 6.85c-.37.67-.98.6-.98.06 0-.5.42-1.04 1.84-1.6l-.86 1.54Zm.86-4.1c-.43 0-.62-.3-.19-.98l2.58-4.46c.98-1.72 2.94-1.29 2.02.36l-1.4 2.45c-1.11 1.77-2.28 2.63-3.01 2.63Zm18.1-2.75h-.06a1.1 1.1 0 0 0-.92 1.7v.07c-.86 1.47-2.95 1.22-1.9-.73l1.4-2.39.87-1.47c1.29-2.2 3.07-1.34 1.96.55l-1.35 2.27Zm-95.19-2.08H62.11v1.22h17.73v-1.22Zm139.32 0h-17.74v1.22h17.74v-1.22Z" fill="#766458"/><path d="M100.03 0h4.73l-.74 27.46h-8.9L93.9 16.14l-1.23 11.32h-8.96L83.04 0h4.66l.37 22.75h.49l3-22.75h4.67l3 22.75h.5l.3-22.75Zm19.52 22.75v4.77h-12.83V0h12.83v4.7h-8.16v6.61h6.5v4.71h-6.5v6.67h8.16v.06Zm13.13 0v4.77h-11.23V0h4.67v22.75h6.56Zm9.95-5.38 4.72-1.1v8.31a2.92 2.92 0 0 1-2.88 2.88h-7.06a2.92 2.92 0 0 1-2.88-2.88V2.88A2.88 2.88 0 0 1 137.4 0h7.06a2.92 2.92 0 0 1 2.88 2.87v5.57l-4.72 1.1v-4.9h-3.38V22.7h3.38v-5.32ZM160.12 0A2.92 2.92 0 0 1 163 2.87v21.65a2.92 2.92 0 0 1-2.88 2.87h-7.06a2.92 2.92 0 0 1-2.88-2.87V2.87A2.88 2.88 0 0 1 153.06 0h7.06Zm-1.84 4.7h-3.38v18.05h3.38V4.7ZM178.34 0h4.67v27.46h-4.67V13.94l-1.9 6.97h-4.6L170 13.94v13.52h-4.67V0H170l4.17 13.27L178.34 0Zm19.83 22.75v4.77h-12.83V0h12.83v4.7H190v6.61h6.5v4.71H190v6.67h8.16v.06Z" fill="#81B3D3"/><path d="M27.19 96.37a12.52 12.52 0 0 0-7.92-3.06c-2.2 0-5.1 1.29-5.1 3.86 0 2.69 3.26 3.73 5.28 4.34l3.07.92c6.39 1.9 11.36 5.07 11.36 12.47 0 4.52-1.1 9.23-4.73 12.3-3.62 3.05-8.4 4.27-13 4.27A28.64 28.64 0 0 1 0 126.27l4.97-9.47c3 2.63 6.5 4.7 10.62 4.7 2.82 0 5.77-1.4 5.77-4.58 0-3.36-4.67-4.47-7.24-5.2-7.5-2.2-12.4-4.1-12.4-12.96 0-9.3 6.63-15.35 15.83-15.35 4.6 0 10.31 1.47 14.36 3.79l-4.72 9.17Zm29.03-1.71v7.64h13.44v10.1H56.22v7.88h14.23v10.1H44.31V84.62h26.14v10.1l-14.23-.07ZM79.3 84.63h16.93c12.77 0 23.32 10.03 23.32 22.87 0 12.84-10.62 22.87-23.32 22.87H79.29V84.63Zm11.96 35.65h2.7c7.12 0 13.2-3.91 13.2-12.78 0-8.2-5.4-12.78-13.08-12.78h-2.82v25.56Zm84.69-13.64c0 14.8-10.68 25.26-25.4 25.26-14.74 0-25.41-10.46-25.41-25.26 0-13.81 12.2-23.54 25.4-23.54s25.41 9.73 25.41 23.55Zm-38.42.07c0 7.89 5.83 13.63 12.95 13.63 7.12 0 12.95-5.75 12.95-13.63 0-6.3-5.83-12.11-12.95-12.11-7.06 0-12.95 5.8-12.95 12.1Zm44.74-22.08h11.97l21.85 28h.12v-28h11.97v45.74H216.2l-21.85-28.07h-.12v28.07h-11.97V84.63Zm67.57 37.79-3.19 7.95h-12.64l17.67-45.74h13.01L282 130.37h-12.7l-3.01-7.95h-16.45Zm8.35-23.66h-.13l-4.9 14.55h9.94l-4.91-14.55ZM66.22 175.93c4.73-1.6 5.03-7.46.43-7.46-1.29 0-2.82.91-3.87 2.69l-6.26 10.82c-.3.49-.55.92-.92 1.34-1.6-2.2-1.16-5.5 1.1-6.97l-.91-1.16c-4.91 3.12-3.44 12.05 4.72 12.05 6.94 0 10.19-8.32 5.71-11.31Zm-5.77 9.53c-1.41 0-2.45-.3-3.37-.79.42-.49.8-1.04 1.16-1.65l3.93-6.79.61.06c5.46 1.17 3.32 9.18-2.33 9.18Zm2.52-10.57 1.9-3.24c1.72-2.94 3.87-1.23 2.7.97-.92 1.72-2.21 2.2-4.6 2.27Z" fill="#fff"/><path d="M85.92 183.45c-.37 1.34.37 2.5 1.9 2.5.92 0 2.09-.6 3.25-1.52.13.91.86 1.53 2.03 1.53 1.23 0 2.58-.86 3.93-2.08-.25 1.22.3 2.08 1.47 2.08 1.29 0 2.7-1.17 3.8-2.2-.24 1.22.5 2.2 1.97 2.2 1.9 0 4.11-2.08 6.08-4.28 0-.07-.07-.07-.07-.13 1.3-1.47 2.4-3.06 3.26-4.16-.92 2.39-.43 6.73-2.64 6.73-.8 0-1.1-.86-1.1-.86l-1.48.74s.43 1.9 2.58 1.9c.24 0 .43 0 .67-.07h.06c1.72-.24 3.38-1.28 4.85-2.57.06 1.53 1.23 2.63 3.13 2.63 2.64 0 5.28-2.07 7.18-4.28-.18-.3-.55-.67-.86-.8l-.18.2c-1.66 1.95-3.8 3.48-5.46 3.48-1.41 0-2.27-.92-1.23-2.75l.25-.43c1.47.6 4.3.3 6.07-2.7l.3-.54c1.23-2.14.07-3.73-1.83-3.73-1.9 0-3.38.97-4.36 2.69l-2.27 3.85h-.06l-.19.18c-.86.98-1.9 1.9-2.82 2.51.74-2.2.55-5.63 2.03-8.56l-1.72-.92c-.98 1.35-3.07 4.34-5.16 6.79l.06.06-.06.12c-1.66 1.96-3.31 3.49-4.36 3.49-.49 0-.8-.37-.24-1.29l4.97-8.68h-2.33l-4.11 7.22c-1.78 1.59-3.13 2.5-3.56 2.32-.56-.24 0-1.1.3-1.59l4.55-7.89h-2.34L98.5 181c-.06-.06-.12-.06-.18-.12l-.19.18c-1.65 1.96-3.31 3.49-4.35 3.49-.5 0-.8-.37-.25-1.29l3.74-6.54h-1.35c.06-.98-.92-2.32-2.45-2.32-1.23 0-3 .98-4 2.69l-2.32 4.03c-.13-.12-.25-.18-.37-.24l-.19.18c-1.65 1.96-3.8 3.49-5.46 3.49-1.4 0-2.27-.92-1.22-2.75l2.39-4.16c1.35-2.32 3.74-1.9 2.33.49l-.3.55h1.9l.3-.55c1.23-2.14.06-3.73-1.84-3.73-1.9 0-3.37.98-4.36 2.69L78 181.06c-.06-.06-.12-.06-.18-.12l-.19.19c-1.65 1.95-3.8 3.48-5.46 3.48-1.4 0-2.27-.92-1.22-2.75l.24-.43c1.47.61 4.3.3 6.08-2.69l.3-.55c1.23-2.14.06-3.73-1.84-3.73-1.9 0-3.37.98-4.36 2.69l-2.45 4.16c-1.47 2.44-.18 4.77 2.58 4.77 2.02 0 4.1-1.23 5.77-2.82-.07 1.6 1.16 2.82 3.13 2.82 1.96-.13 3.86-1.23 5.52-2.63Zm35.6-5.87c1.34-2.33 3.74-1.9 2.33.49l-.31.55c-1.1 1.9-2.64 1.83-3.5 1.53l1.47-2.57Zm-33.27 5.68 3.25-5.62c1.23-2.14 3.75-1.6 2.58.49l-1.84 3.18c-1.41 2.2-2.82 3.24-3.74 3.24-.5-.06-.8-.37-.25-1.29Zm-14.85-5.68c1.35-2.33 3.74-1.9 2.33.49l-.3.55c-1.11 1.9-2.64 1.83-3.5 1.53l1.47-2.57Zm78.92 8.37c2.64 0 5.28-2.07 7.18-4.28-.18-.3-.55-.67-.86-.8l-.18.2c-1.66 1.95-3.8 3.48-5.46 3.48-1.41 0-2.27-.92-1.23-2.75l.25-.43c1.47.6 4.3.3 6.07-2.7l.3-.54c1.24-2.14.07-3.73-1.83-3.73-1.9 0-3.38.97-4.36 2.69l-2.27 3.85s-.06 0-.06-.06l-.19.18c-1.65 1.96-3.31 3.49-4.35 3.49-.5 0-.8-.37-.25-1.29l3.38-5.87c.98-1.77.06-3.05-1.23-3.05-.98 0-2.09.55-3.25 1.77l3.74-6.42h-2.4L138.77 181c-.06-.06-.18-.12-.25-.18l-.18.18c-1.66 1.96-3.31 3.49-4.36 3.49-.49 0-.8-.37-.24-1.29l4.97-8.68h1.9l.68-1.1h-1.9l2.2-3.8h-2.33l-2.2 3.8h-2.1l-.67 1.1h2.15l-4.67 8.07c-.98 1.71-.3 3.3 1.6 3.3 1.16 0 2.4-.73 3.68-1.83l-.92 1.59h2.33l3.56-6.12c3.56-4.46 5.16-3.91 4.18-2.2l-3.01 5.26c-.98 1.71-.3 3.3 1.6 3.3 1.4 0 3-1.1 4.47-2.56 0 1.52 1.17 2.62 3.07 2.62Zm1.9-8.37c1.36-2.33 3.75-1.9 2.34.49l-.3.55c-1.11 1.9-2.65 1.83-3.5 1.53l1.47-2.57Zm68.68 3.3-.18.18c-1.66 1.96-3.32 3.49-4.36 3.49-.5 0-.8-.37-.25-1.29l7.86-13.57h-2.33l-3.44 5.87a2.53 2.53 0 0 0-2.15-1.22c-1.23 0-3 .97-3.99 2.69l-2.27 3.91c-.06 0-.12-.06-.12-.06l-.18.18c-1.66 1.96-3.32 3.49-4.36 3.49-.5 0-.8-.37-.25-1.29l3.38-5.87c.98-1.77.06-3.05-1.23-3.05-.98 0-2.09.55-3.25 1.7l.86-1.52h-2.34l-3.74 6.42c-.06-.06-.12-.12-.25-.12l-.18.18c-1.66 1.96-3.31 3.49-4.36 3.49-.49 0-.8-.37-.24-1.29l3.74-6.54h-1.16c.06-.98-.93-2.32-2.46-2.32-1.23 0-3 .97-3.99 2.69l-2.27 3.85-.12.12c-1.66 1.96-3.32 3.49-4.36 3.49-.49 0-.8-.37-.24-1.29l2.33-4.03c.8-1.41.43-2.2-.3-3.12l-1.3-1.6c-.3-.42-.3-.9.13-1.34l-1.23-1.34c-1.35 1.16-1.41 2.5-.62 3.54l.19.25c-1.05 1.47-2.4 3.42-3.93 5.2l.18.18c-1.9 2.2-3.56 3.6-5.4 4.4l2.95-5.01h-2.27l-.25.43c-1.22 2.14-2.64 3.73-4.48 3.73-1.6 0-1.9-1.6-.49-3.98l.68-1.16c.43.06.86.12 1.35.12 8.28 0 12.27-11.06 4.97-11.06-1.29 0-2.83.91-3.87 2.69l-3.62 6.23a3.8 3.8 0 0 1-2.09-3.3c0-1.1.5-2.14 1.48-2.94l-.74-1.34a5.24 5.24 0 0 0-2.4 4.34c0 1.84 1.05 3.6 2.95 4.59l-.67 1.22c-1.66 2.81-1.35 5.93 1.96 5.93.98 0 1.84-.3 2.52-.73l-.61 1.04c-3.13.98-5.1 2.2-5.1 3.97 0 2.2 3.44 2.7 5.1-.18l1.77-3.06c2.4-.73 4.8-2.38 7.37-5.38-.06-.06-.06-.12-.12-.24 1.04-1.23 1.9-2.39 3.68-4.77l.3.36c.31.37.44.86.13 1.35l-2.46 4.28c-.98 1.71-.3 3.3 1.6 3.3 1.16 0 2.45-.73 3.68-1.83 0 1.04.68 1.83 2.03 1.83.92 0 2.08-.61 3.25-1.53.12.92.86 1.53 2.02 1.53 1.1 0 2.34-.67 3.5-1.71l-.86 1.47h2.34l3.56-6.18c3.55-4.46 5.15-3.85 4.1-2.14l-3 5.26c-.98 1.71-.3 3.3 1.6 3.3 1.22 0 2.57-.86 3.92-2.02-.12 1.16.62 2.02 2.03 2.02.92 0 2.09-.61 3.25-1.53.12.92.86 1.53 2.03 1.53 1.9 0 4.1-2.08 6.07-4.28-.24-.12-.67-.49-.98-.61Zm-47.8-8.68c.67-1.17 1.47-1.72 2.08-1.72 3.68 0 1.1 7.53-4.97 7.53h-.5l3.38-5.81Zm-4.98 17.49c-.49.85-1.29.73-1.29.12 0-.62.55-1.29 2.33-1.96l-1.04 1.84Zm24.37-8.44c-1.42 2.2-2.83 3.24-3.75 3.24-.49 0-.8-.37-.24-1.29l3.25-5.62c1.23-2.14 3.74-1.6 2.58.49l-1.84 3.18Zm22.52-.13c-1.41 2.33-2.82 3.37-3.8 3.37-.5 0-.8-.37-.25-1.29l3.25-5.62c1.23-2.14 3.74-1.6 2.58.49l-1.78 3.05Zm-71.87 21.78-.18.18c-1.66 1.95-3.31 3.48-4.36 3.48-.49 0-.8-.37-.24-1.28l3.37-5.87c.98-1.78.06-3.06-1.23-3.06-.98 0-2.08.55-3.25 1.71l.86-1.53h-2.33l-3.75 6.48c-.12-.06-.18-.12-.3-.18l-.19.18a4.79 4.79 0 0 1-3.5 1.72l2.22-3.8c1.4-2.44.12-4.7-2.1-4.7-1.77 0-3.18.73-4.53 3.06l-1.17 1.95-.98 1.71c-.06-.06-.12-.06-.19-.12l-.18.18c-1.9 2.2-3.56 3.61-5.4 4.4l6.38-10.88h-2.33l-4.11 7.16c-1.78 1.65-3.2 2.57-3.62 2.38-.56-.24 0-1.1.3-1.59l4.55-7.89h-2.34l-3.74 6.42c-.06-.06-.12-.06-.18-.12l-.19.19c-1.66 1.95-3.31 3.48-4.36 3.48-.49 0-.8-.37-.24-1.28l3.38-5.87c.98-1.78.06-3.06-1.23-3.06-.98 0-2.09.55-3.26 1.71l.86-1.53h-2.33l-3.74 6.42c-.06-.06-.13-.12-.25-.12l-.18.18c-1.66 1.96-3.32 3.49-4.36 3.49-.49 0-.8-.37-.24-1.28l3.74-6.55h-1.35c.06-.97-.92-2.32-2.46-2.32-1.22 0-3 .98-3.98 2.69l-2.4 4.16a5.66 5.66 0 0 0-.49-.3l-.18.18c-1.66 1.95-3.75 3.48-6.02 3.48-1.6 0-2.58-1.59-1.16-3.97l.67-1.16c.43.06.86.12 1.35.12 2.46 0 5.28-1.29 7.12-4.47.68-1.16.92-2.2.92-3.12 0-2.07-1.35-3.48-3.07-3.48-1.29 0-2.82.92-3.86 2.69l-3.63 6.24a3.8 3.8 0 0 1-2.08-3.3c0-1.1.49-2.15 1.47-2.94l-.74-1.34a5.23 5.23 0 0 0-2.39 4.34c0 1.83 1.04 3.6 2.95 4.58l-.68 1.22c-1.65 2.82-.67 5.94 2.64 5.94 2.58 0 4.54-1.16 6.14-2.7-.5 1.47.24 2.7 1.9 2.7.92 0 2.09-.62 3.25-1.53.13.91.86 1.53 2.03 1.53 1.1 0 2.33-.68 3.5-1.72l-.86 1.47h2.33l3.56-6.17c3.56-4.47 5.15-3.86 4.11-2.14l-3 5.25c-.99 1.72-.31 3.3 1.59 3.3 1.23 0 2.64-.85 3.99-2.07-.3 1.28.3 2.08 1.47 2.08 1.1 0 2.4-.92 3.44-1.9l-1.29 2.2c-3.13.92-5.16 2.2-5.16 3.98 0 2.2 3.44 2.69 5.1-.19l1.78-3.05c1.96-.61 3.86-1.84 5.89-3.8-.3 3.25 3.99 3.98 6.63.68h.49c.86 0 2.02-.3 3.07-.92l-1.54 2.7h2.33l3.56-6.19c3.56-4.46 5.16-3.85 4.12-2.13l-3.01 5.25c-.98 1.72-.3 3.3 1.6 3.3 1.9 0 4.1-2.07 6.07-4.28-.06-.18-.49-.55-.8-.67Zm-57.93-8.7c.67-1.15 1.47-1.7 2.09-1.7.85 0 1.28.55 1.28 1.4 0 2.14-2.64 6.06-6.26 6.06h-.49l3.38-5.75Zm8.22 9.06c-1.4 2.2-2.82 3.24-3.74 3.24-.5 0-.8-.37-.25-1.28l3.26-5.63c1.22-2.14 3.74-1.59 2.57.49l-1.84 3.18Zm17.68 8.44c-.5.85-1.3.73-1.3.12s.56-1.28 2.34-1.96l-1.04 1.84Zm15.7-8.69h-.12c-.73 0-1.34.62-1.34 1.41 0 .3.06.55.24.8v.06c-1.1 1.9-3.74 1.53-2.4-.92l1.79-3.06 1.1-1.9c1.66-2.75 3.87-1.64 2.46.74l-1.72 2.88Zm70.28.68a1.37 1.37 0 0 0-.86-.8l-.19.19c-.85.97-1.9 1.9-2.82 2.5.74-2.2.55-5.62 2.03-8.56l-1.72-.91c-.98 1.34-3.07 4.34-5.16 6.78l-.18.19c-1.66 1.95-3.31 3.48-4.36 3.48-.49 0-.98-.49-.98-1.59V204c1.66.19 3.38-.85 4.48-2.75l.61-1.1c2.15-3.73-1.35-4.95-3.74-2.75l3.31-5.75h-2.33l-6.63 11.5c-.12-.12-.3-.25-.43-.3l-.18.18c-1.66 1.95-3.8 3.48-5.46 3.48-1.41 0-2.27-.92-1.23-2.75l2.4-4.16c1.34-2.32 3.74-1.9 2.33.5l-.31.54h1.9l.3-.55c1.24-2.14.07-3.73-1.83-3.73-1.9 0-3.38.98-4.36 2.7l-2.27 3.9c-.06 0-.12-.06-.12-.06l-.19.19c-1.65 1.95-3.31 3.48-4.35 3.48-.5 0-.8-.36-.25-1.28l4.97-8.69h-2.33l-4.11 7.22c-1.78 1.6-3.13 2.5-3.56 2.32-.56-.24 0-1.1.3-1.59l4.55-7.88h-2.34l-4.54 7.76c-.49.43-1.04.86-1.47 1.23.74-2.2.55-5.63 2.02-8.57l-1.71-.91c-.99 1.34-6.32 8.44-8.47 10.88.18.3.55.55.86.8 1.35-1.53 5.77-7.22 6.56-8.32-.92 2.38-.43 6.73-2.64 6.73-.8 0-1.1-.86-1.1-.86l-1.47.73s.43 1.9 2.57 1.9c.25 0 .43 0 .68-.06h.06a8.05 8.05 0 0 0 3.44-1.47c0 .92.55 1.53 1.53 1.53 1.29 0 2.7-1.16 3.8-2.2-.24 1.22.5 2.2 1.97 2.2s3.07-1.16 4.6-2.7c0 1.54 1.23 2.7 3.13 2.7s3.75-1.04 5.4-2.45l-1.28 2.27h2.33l2.64-4.59v1.84c0 1.95.36 3 2.27 3 1.9 0 4.1-2.09 6.07-4.29 1.35-1.53 2.46-3.12 3.32-4.22-.92 2.39-.43 6.73-2.64 6.73-.8 0-1.1-.86-1.1-.86l-1.48.74s.43 1.9 2.58 1.9c.24 0 .43 0 .67-.07h.06c2.34-.43 4.73-2.32 6.45-4.34Zm-15.47-1.84.68-1.16c2.7-3.73 4.54-2.69 3.68-1.28l-1.1 1.9c-.68 1.22-2.7 2.07-3.26.54Zm15.41 3.43c-.74 0-1.35.61-1.35 1.34 0 .74.55 1.35 1.35 1.35.73 0 1.35-.55 1.35-1.35 0-.73-.62-1.34-1.35-1.34Zm.12-.92h2.33l7.3-12.66h-2.33l-7.3 12.66ZM49.22 169.75c0 .18-.06.37-.12.55-.06.18-.19.37-.31.49s-.3.25-.5.37c-.18.06-.42.12-.67.12-.3 0-.55-.06-.8-.18-.24-.13-.48-.25-.67-.43-.18-.19-.24-.37-.37-.61a3.08 3.08 0 0 1-.12-.8c0-.55.12-.98.3-1.47.2-.42.44-.85.8-1.16.13-.12.31-.3.5-.43.18-.12.36-.24.55-.3.18-.06.3-.19.43-.25.12-.06.18-.06.24-.12l.86 1.22c-.12.06-.3.13-.49.25-.18.06-.37.18-.55.3-.19.13-.3.31-.43.5-.12.18-.18.36-.18.6.42 0 .73.13 1.04.37.37.19.49.55.49.98Zm4.85 0c0 .18-.06.37-.12.55-.07.18-.19.37-.31.49s-.3.25-.5.37c-.18.06-.42.12-.67.12-.3 0-.55-.06-.8-.18-.24-.13-.49-.25-.67-.43-.12-.19-.25-.37-.37-.61a3.08 3.08 0 0 1-.12-.8c0-.55.12-.98.3-1.47.19-.42.43-.85.8-1.16.13-.12.31-.3.5-.43.18-.12.36-.24.55-.3.18-.06.3-.19.43-.25.12-.06.18-.06.24-.12l.86 1.22c-.12.06-.3.13-.49.25-.18.06-.37.18-.55.3-.19.13-.31.31-.43.5-.13.18-.19.36-.19.6.43 0 .74.13 1.05.37.3.19.49.55.49.98Zm162.69 36.02c0-.19.06-.37.13-.55.06-.19.18-.37.3-.5.13-.12.3-.24.5-.36.18-.06.42-.12.67-.12.3 0 .55.06.8.18.24.12.49.25.67.43.18.18.25.37.37.61.06.25.12.5.12.8 0 .55-.12.98-.3 1.46-.19.43-.43.86-.8 1.17a3.41 3.41 0 0 1-1.05.73c-.18.06-.3.18-.42.24-.13.06-.19.06-.25.13l-.86-1.23c.12-.06.3-.12.5-.24.18-.06.36-.18.54-.3.19-.13.31-.31.43-.5.13-.18.19-.36.19-.6-.43 0-.74-.13-1.05-.37-.3-.19-.49-.56-.49-.98Zm-4.78 0c0-.19.06-.37.12-.55.06-.19.18-.37.3-.5.13-.12.31-.24.5-.36.18-.06.43-.12.67-.12.3 0 .55.06.8.18s.49.25.67.43c.13.18.25.37.37.61.06.25.13.5.13.8 0 .55-.13.98-.31 1.46-.19.43-.43.86-.8 1.17-.12.12-.3.3-.49.42-.19.13-.37.25-.55.31-.19.06-.31.18-.43.24-.13.06-.19.06-.25.13l-.86-1.23c.19-.06.31-.12.5-.24.18-.06.36-.18.55-.3.18-.13.3-.31.43-.5.12-.18.18-.36.18-.6-.43 0-.74-.13-1.04-.37-.37-.19-.5-.56-.5-.98Z" fill="#fff"/></svg><svg viewBox="0 0 32 32" fill="none" id="favicons_icon"><path fill="#81B3D3" d="M0 0h32v32H0z"/><path d="M10.723 19.743c.023.023.034.045.034.067.023 0 .046.01.068.033.613.66 1.305 1.275 2.077 1.847.771.55 1.657.846 2.655.89.023 0 .046.011.068.033h.102c.023 0 .046.011.069.033h.374c.114-.022.216-.044.306-.066.364-.066.711-.2 1.022-.396.34-.198.601-.44.783-.725l.068-.132.068-.132c.045-.154.08-.297.102-.43a2.16 2.16 0 0 0 .034-.362c0-.593-.272-1.088-.817-1.484a5.897 5.897 0 0 0-1.702-.957 5.066 5.066 0 0 0-.715-.197 9.509 9.509 0 0 0-.647-.165h-.068c-.023-.022-.045-.033-.068-.033a11.341 11.341 0 0 1-3.132-1.254c-.976-.593-1.645-1.44-2.009-2.54-.07-.23-.139-.46-.204-.692a7.682 7.682 0 0 1-.102-.759.94.94 0 0 1-.034-.23V11.3a4.3 4.3 0 0 1 .102-.528c.07-.45.184-.89.34-1.32.16-.439.364-.835.613-1.187.726-1.165 1.657-2 2.792-2.506A8.92 8.92 0 0 1 16.51 5c.295 0 .59.022.885.066.319.022.636.055.953.099.828.135 1.638.356 2.417.66.817.307 1.566.67 2.247 1.088l-1.872 4.057A13.172 13.172 0 0 0 19.2 9.816a5.004 5.004 0 0 0-2.213-.495h-.272c-.522.066-1.01.297-1.464.692-.454.374-.68.781-.68 1.22v.199a.821.821 0 0 0 .101.198c.046.154.125.296.239.429.113.131.238.252.374.362.25.198.613.385 1.09.561.476.154.975.308 1.497.462.431.11.851.22 1.26.33.409.088.749.176 1.021.264 1.271.44 2.224 1.176 2.86 2.21.635 1.01.964 2.088.987 3.232v.165c0 .132-.011.264-.034.396v.362a7.976 7.976 0 0 1-1.157 3.266 6.204 6.204 0 0 1-2.485 2.375c-.388.176-.786.33-1.192.461-.406.11-.814.209-1.226.297-.337.066-.678.11-1.02.132a7.706 7.706 0 0 1-.988.066h-.375c-1.361-.044-2.7-.33-4.017-.858A12.568 12.568 0 0 1 8 23.965l2.723-4.222Z" fill="#fff"/></svg><svg viewBox="0 0 40 36" fill="none" id="icons_icon-burger"><path d="M37.743 23.85H2.257C.997 23.85 0 24.864 0 26.029v1.773c0 1.165.997 2.128 2.257 2.128h.525v.506c0 2.786 2.362 5.015 5.197 5.015h24.042c2.887 0 5.197-2.28 5.197-5.015v-.506h.525c1.207 0 2.257-.963 2.257-2.178v-1.773c0-1.115-.997-2.128-2.257-2.128Zm-2.047 6.585c0 1.925-1.628 3.495-3.622 3.495H7.927c-1.995 0-3.623-1.57-3.623-3.495v-.506h31.392v.506Zm2.73-2.684c0 .354-.316.658-.683.658H2.257c-.367 0-.682-.304-.682-.658v-1.773c0-.304.315-.608.682-.608h35.538c.368 0 .683.304.683.659v1.722h-.053ZM8.504 19.747l2.835 2.026 2.887-2.026 2.887 2.026L20 19.747l2.835 2.026 2.887-2.026 2.887 2.026 2.887-2.026 2.887 2.026 3.307-2.38-.892-1.216-2.415 1.672-2.887-2.026-2.887 2.026-2.887-2.026-2.887 2.026L20 17.823l-2.887 2.026-2.887-2.026-2.887 2.026-2.835-2.026-2.887 2.026-2.415-1.672-.945 1.216 3.36 2.38 2.887-2.026ZM37.218 16.303c0-.304.052-1.317 0-1.52C36.85 6.883 29.29.55 20 .55S3.097 6.882 2.73 14.784v1.52h34.488ZM20 2.07c8.399 0 15.328 5.673 15.643 12.714H4.304C4.672 7.743 11.601 2.07 20 2.07Z" fill="#81B3D2"/><path d="M20 9.161c.58 0 1.05-.453 1.05-1.013 0-.56-.47-1.013-1.05-1.013-.58 0-1.05.454-1.05 1.013 0 .56.47 1.013 1.05 1.013ZM15.8 6.679c.58 0 1.05-.454 1.05-1.013 0-.56-.47-1.013-1.05-1.013-.58 0-1.05.453-1.05 1.013 0 .56.47 1.013 1.05 1.013ZM24.2 6.679c.58 0 1.05-.454 1.05-1.013 0-.56-.47-1.013-1.05-1.013-.58 0-1.05.453-1.05 1.013 0 .56.47 1.013 1.05 1.013Z" fill="#81B3D2"/></svg><svg viewBox="0 0 32 38" fill="none" id="icons_icon-gift"><path d="M30.578 11.206H18.184c6.908-3.444 7.467-5.622 7.213-6.838-.559-1.975-2.845-3.495-4.978-2.685-2.794 1.064-3.556 5.218-4.317 8.206-.966-3.04-1.88-6.889-4.064-8.864-.61-.557-1.524-1.114-2.895-1.013-2.032.203-4.927 2.684-3.708 5.47 1.117 2.685 4.825 4.407 7.314 5.775H1.422C.61 11.257 0 11.915 0 12.675v5.672c0 .811.66 1.419 1.422 1.419h.153V38h28.952V19.766h.05c.813 0 1.423-.659 1.423-1.418v-5.673c0-.81-.66-1.47-1.422-1.47ZM21.232 2.95c1.066-.152 2.489.658 2.641 1.62.203 1.368-1.676 2.634-2.54 3.192-1.27.86-2.489 1.316-3.657 2.026.407-1.874 1.27-6.534 3.556-6.838ZM9.752 7.914c-1.117-.76-3.25-2.23-3.2-3.9.051-1.824 2.896-3.293 4.42-1.925 1.93 1.671 2.844 5.571 3.555 8.306-1.625-.81-3.15-1.418-4.775-2.481ZM12.75 36.48H3.048V19.765h9.701V36.48Zm0-18.235H1.524v-5.52h11.225v5.52Zm5.08 18.235h-3.607V12.724h3.607V36.48Zm11.174 0h-9.65V19.765h9.701V36.48h-.05Zm1.473-18.235H19.352v-5.52h11.124v5.52Z" fill="#81B3D2"/></svg><svg viewBox="0 0 40 38" fill="none" id="icons_icon-house"><path d="M15.902 33.804h8.353V21.646h-8.353v12.158Zm6.839-1.475h-5.325V23.12h5.273v9.208h.052Z" fill="#81B3D2"/><path d="m38.404 20.628 1.096-1.069-5.169-5.036V.788h-7.205v6.715L19.974.585.5 19.61l1.096 1.069L5.67 16.71V35.94H3.633v1.475h33.361V35.94h-2.663V16.66l4.073 3.968ZM28.64 2.314h4.124v10.734L28.641 9.03V2.314Zm4.176 33.575H7.235V15.185L19.974 2.72l12.791 12.464v20.704h.052Z" fill="#81B3D2"/><path d="M16.058 14.422c0 2.187 1.828 3.968 4.02 3.968 2.245 0 4.073-1.781 4.073-3.968 0-2.188-1.828-3.918-4.073-3.918s-4.02 1.73-4.02 3.918Zm4.02-2.544c1.41 0 2.61 1.12 2.61 2.544 0 1.373-1.148 2.543-2.61 2.543-1.41 0-2.61-1.119-2.61-2.543 0-1.374 1.2-2.544 2.61-2.544ZM10.89 21.646H9.322v1.984h1.566v-1.984ZM13.97 21.646h-1.566v1.984h1.566v-1.984ZM10.89 24.698H9.322v1.983h1.566v-1.983ZM13.97 24.698h-1.566v1.983h1.566v-1.983ZM27.544 21.646h-1.566v1.984h1.566v-1.984ZM30.677 21.646H29.11v1.984h1.566v-1.984ZM27.544 24.698h-1.566v1.983h1.566v-1.983ZM30.677 24.698H29.11v1.983h1.566v-1.983Z" fill="#81B3D2"/></svg><svg viewBox="0 0 16 12" fill="none" id="icons_mail"><path d="M8 8c-.3 0-.5-.1-1-.3L0 4v7c0 .5.5 1 1 1h14c.5 0 1-.5 1-1V4L9 7.7c-.5.2-.7.3-1 .3Zm7-8H1C.5 0 0 .5 0 1v.8L8 6l8-4.2V1c0-.5-.5-1-1-1Z" fill="#000"/></svg><svg viewBox="0 0 18 18" fill="none" id="icons_phone"><path d="M3.6 7.8c1.4 2.8 3.8 5.1 6.6 6.6l2.2-2.2c.3-.3.7-.4 1-.2 1.1.4 2.3.6 3.6.6.6 0 1 .4 1 1V17c0 .6-.4 1-1 1C7.6 18 0 10.4 0 1c0-.6.4-1 1-1h3.5c.6 0 1 .4 1 1 0 1.2.2 2.4.6 3.6.1.3 0 .7-.2 1L3.6 7.8Z" fill="#010101"/></svg><svg viewBox="0 0 24 24" fill="none" id="icons_telegram"><path d="m22.44 4.622-3.17 14.944c-.239 1.055-.862 1.317-1.748.82l-4.828-3.558-2.33 2.242c-.258.258-.473.473-.97.473l.347-4.917 8.948-8.086c.39-.346-.084-.54-.604-.192L7.022 13.314 2.26 11.823c-1.036-.323-1.055-1.036.216-1.533l18.627-7.177c.863-.323 1.617.192 1.336 1.51Z" fill="#fff"/></svg><svg viewBox="0 0 48 54" fill="none" id="icons_video-button"><path d="M48 27 0 54V0l48 27Z" fill="#fff" fill-opacity=".7"/></svg><svg viewBox="0 0 24 24" fill="none" id="icons_vk"><g clip-path="url(#icons_vk_0)"><path fill-rule="evenodd" clip-rule="evenodd" d="M23.45 5.948c.166-.546 0-.948-.795-.948H20.03c-.668 0-.976.347-1.143.73 0 0-1.335 3.196-3.226 5.272-.612.602-.89.793-1.224.793-.167 0-.418-.191-.418-.738V5.948c0-.656-.184-.948-.74-.948H9.151c-.417 0-.668.304-.668.593 0 .621.946.765 1.043 2.513v3.798c0 .833-.153.984-.487.984-.89 0-3.055-3.211-4.34-6.885C4.45 5.288 4.198 5 3.527 5H.9c-.75 0-.9.347-.9.73 0 .682.89 4.07 4.145 8.551C6.315 17.341 9.37 19 12.153 19c1.669 0 1.875-.368 1.875-1.003v-2.313c0-.737.158-.884.687-.884.39 0 1.057.192 2.615 1.667C19.11 18.216 19.403 19 20.405 19h2.625c.75 0 1.126-.368.91-1.096-.238-.724-1.088-1.775-2.215-3.022-.612-.71-1.53-1.475-1.809-1.858-.389-.491-.278-.71 0-1.147 0 0 3.2-4.426 3.533-5.929h.001Z" fill="#fff"/></g><defs><clipPath id="icons_vk_0"><path fill="#fff" d="M0 0h24v24H0z"/></clipPath></defs></svg><svg viewBox="0 0 24 24" fill="none" id="icons_youtube"><path d="M19.181 5H4.813C3.306 5 2 6.3 2 7.8v8.3C2 17.7 3.306 19 4.813 19h14.368c1.608 0 2.814-1.3 2.814-2.8V7.8c.1-1.5-1.206-2.8-2.814-2.8ZM9.033 15.4V8.6l6.833 3.4-6.833 3.4Z" fill="#fff"/></svg></svg>